<svg width="32" height="32" viewBox="0 0 32 32" fill="none" xmlns="http://www.w3.org/2000/svg">
<path d="M4.75 21.7861V20.6611H2.5V21.7861C2.5 23.8747 3.32968 25.8778 4.80653 27.3546C6.28338 28.8314 8.28642 29.6611 10.375 29.6611H13.75V27.4111H10.375C8.88316 27.4111 7.45242 26.8185 6.39752 25.7636C5.34263 24.7087 4.75 23.278 4.75 21.7861ZM25 10.5361V11.6611H27.25V10.5361C27.25 8.44756 26.4203 6.44452 24.9435 4.96767C23.4666 3.49082 21.4636 2.66113 19.375 2.66113H16V4.91113H19.375C20.1137 4.91113 20.8451 5.05663 21.5276 5.33931C22.2101 5.622 22.8301 6.03633 23.3525 6.55866C23.8748 7.08099 24.2891 7.70108 24.5718 8.38354C24.8545 9.066 25 9.79745 25 10.5361ZM10.375 10.5361H3.625C2.72989 10.5361 1.87145 10.8917 1.23851 11.5246C0.605579 12.1576 0.25 13.016 0.25 13.9111V16.1611H2.5V13.9111C2.5 13.6128 2.61853 13.3266 2.8295 13.1156C3.04048 12.9047 3.32663 12.7861 3.625 12.7861H10.375C10.6734 12.7861 10.9595 12.9047 11.1705 13.1156C11.3815 13.3266 11.5 13.6128 11.5 13.9111V16.1611H13.75V13.9111C13.75 13.016 13.3944 12.1576 12.7615 11.5246C12.1286 10.8917 11.2701 10.5361 10.375 10.5361ZM7 9.41113C7.89002 9.41113 8.76004 9.14721 9.50007 8.65275C10.2401 8.15828 10.8169 7.45548 11.1575 6.63321C11.4981 5.81094 11.5872 4.90614 11.4135 4.03323C11.2399 3.16031 10.8113 2.35849 10.182 1.72915C9.55264 1.09982 8.75082 0.671235 7.87791 0.497601C7.00499 0.323968 6.10019 0.413083 5.27792 0.753677C4.45566 1.09427 3.75285 1.67105 3.25839 2.41107C2.76392 3.15109 2.5 4.02112 2.5 4.91113C2.5 6.10461 2.97411 7.2492 3.81802 8.09312C4.66193 8.93703 5.80653 9.41113 7 9.41113ZM7 2.66113C7.44501 2.66113 7.88002 2.7931 8.25003 3.04033C8.62004 3.28756 8.90843 3.63896 9.07873 4.0501C9.24903 4.46123 9.29358 4.91363 9.20677 5.35009C9.11995 5.78655 8.90566 6.18746 8.59099 6.50213C8.27632 6.81679 7.87541 7.03109 7.43895 7.1179C7.0025 7.20472 6.5501 7.16016 6.13896 6.98986C5.72783 6.81957 5.37643 6.53118 5.12919 6.16117C4.88196 5.79116 4.75 5.35614 4.75 4.91113C4.75 4.3144 4.98705 3.7421 5.40901 3.32014C5.83097 2.89819 6.40326 2.66113 7 2.66113ZM28.375 26.2861H21.625C20.7299 26.2861 19.8714 26.6417 19.2385 27.2746C18.6056 27.9076 18.25 28.766 18.25 29.6611V31.9111H20.5V29.6611C20.5 29.3628 20.6185 29.0766 20.8295 28.8656C21.0405 28.6547 21.3266 28.5361 21.625 28.5361H28.375C28.6734 28.5361 28.9595 28.6547 29.1705 28.8656C29.3815 29.0766 29.5 29.3628 29.5 29.6611V31.9111H31.75V29.6611C31.75 28.766 31.3944 27.9076 30.7615 27.2746C30.1286 26.6417 29.2701 26.2861 28.375 26.2861ZM20.5 20.6611C20.5 21.5512 20.7639 22.4212 21.2584 23.1612C21.7529 23.9012 22.4557 24.478 23.2779 24.8186C24.1002 25.1592 25.005 25.2483 25.8779 25.0747C26.7508 24.901 27.5526 24.4725 28.182 23.8431C28.8113 23.2138 29.2399 22.412 29.4135 21.539C29.5872 20.6661 29.4981 19.7613 29.1575 18.9391C28.8169 18.1168 28.2401 17.414 27.5001 16.9195C26.76 16.4251 25.89 16.1611 25 16.1611C23.8065 16.1611 22.6619 16.6352 21.818 17.4792C20.9741 18.3231 20.5 19.4677 20.5 20.6611ZM27.25 20.6611C27.25 21.1061 27.118 21.5412 26.8708 21.9112C26.6236 22.2812 26.2722 22.5696 25.861 22.7399C25.4499 22.9102 24.9975 22.9547 24.561 22.8679C24.1246 22.7811 23.7237 22.5668 23.409 22.2521C23.0943 21.9375 22.88 21.5365 22.7932 21.1001C22.7064 20.6636 22.751 20.2112 22.9213 19.8001C23.0916 19.389 23.38 19.0376 23.75 18.7903C24.12 18.5431 24.555 18.4111 25 18.4111C25.5967 18.4111 26.169 18.6482 26.591 19.0701C27.0129 19.4921 27.25 20.0644 27.25 20.6611Z" fill="#E6E6E6"/>
</svg>
