<svg width="49" height="49" viewBox="0 0 49 49" fill="none" xmlns="http://www.w3.org/2000/svg">
<path d="M31.9543 46.4111C31.9543 44.4719 31.1839 42.612 29.8127 41.2408C28.4414 39.8695 26.5816 39.0991 24.6423 39.0991C22.7031 39.0991 20.8432 39.8695 19.4719 41.2408C18.1007 42.612 17.3303 44.4719 17.3303 46.4111M46.2863 40.9831C46.2869 39.6093 45.8916 38.2644 45.1478 37.1093C44.404 35.9543 43.3432 35.0379 42.0923 34.47C40.8413 33.902 39.4533 33.7064 38.0941 33.9067C36.735 34.1069 35.4623 34.6945 34.4283 35.5991M2.57031 40.9831C2.56977 39.6093 2.96504 38.2644 3.70883 37.1093C4.45261 35.9543 5.51343 35.0379 6.76435 34.47C8.01528 33.902 9.40335 33.7064 10.7625 33.9067C12.1217 34.1069 13.3943 34.6945 14.4283 35.5991M24.4283 18.4111C25.2162 18.4111 25.9965 18.2559 26.7244 17.9544C27.4524 17.6529 28.1138 17.2109 28.671 16.6538M24.4283 18.4111C22.837 18.4111 21.3109 17.779 20.1857 16.6538M24.4283 18.4111V22.9111M28.671 16.6538C29.2281 16.0966 29.6701 15.4352 29.9716 14.7072C30.2731 13.9793 30.4283 13.1991 30.4283 12.4111M28.671 16.6538L31.8523 19.8351M30.4283 12.4111C30.4283 11.6232 30.2731 10.843 29.9716 10.115C29.6701 9.38708 29.2281 8.72564 28.671 8.16849M30.4283 12.4111H34.9283M28.671 8.16849C28.1138 7.61134 27.4524 7.16938 26.7244 6.86786C25.9965 6.56633 25.2162 6.41113 24.4283 6.41113M28.671 8.16849L31.8523 4.98713M24.4283 6.41113C22.837 6.41113 21.3109 7.04327 20.1857 8.16849M24.4283 6.41113V1.91113M20.1857 8.16849C19.0605 9.29371 18.4283 10.8198 18.4283 12.4111M20.1857 8.16849L17.0043 4.98713M18.4283 12.4111C18.4283 14.0024 19.0605 15.5286 20.1857 16.6538M18.4283 12.4111H13.9283M20.1857 16.6538L17.0043 19.8351M23.4283 1.91113H25.4283M31.1463 4.27913L32.5603 5.69313M34.9283 11.4111V13.4111M32.5603 19.1291L31.1463 20.5431M25.4283 22.9111H23.4283M17.7103 20.5431L16.2963 19.1291M13.9283 13.4111V11.4111M16.2963 5.69313L17.7103 4.27913M24.6423 36.6631C25.1841 36.6631 25.7207 36.5564 26.2213 36.3491C26.7219 36.1417 27.1767 35.8378 27.5598 35.4547C27.943 35.0715 28.2469 34.6167 28.4542 34.1161C28.6616 33.6155 28.7683 33.079 28.7683 32.5371C28.7683 31.9953 28.6616 31.4588 28.4542 30.9582C28.2469 30.4576 27.943 30.0027 27.5598 29.6196C27.1767 29.2365 26.7219 28.9326 26.2213 28.7252C25.7207 28.5179 25.1841 28.4111 24.6423 28.4111C23.548 28.4111 22.4986 28.8458 21.7248 29.6196C20.951 30.3934 20.5163 31.4428 20.5163 32.5371C20.5163 33.6314 20.951 34.6809 21.7248 35.4547C22.4986 36.2284 23.548 36.6631 24.6423 36.6631ZM39.1343 31.4491C40.2042 31.4491 41.2303 31.0241 41.9868 30.2676C42.7433 29.5111 43.1683 28.485 43.1683 27.4151C43.1683 26.3452 42.7433 25.3192 41.9868 24.5627C41.2303 23.8061 40.2042 23.3811 39.1343 23.3811C38.0644 23.3811 37.0384 23.8061 36.2818 24.5627C35.5253 25.3192 35.1003 26.3452 35.1003 27.4151C35.1003 28.485 35.5253 29.5111 36.2818 30.2676C37.0384 31.0241 38.0644 31.4491 39.1343 31.4491ZM9.72231 31.4491C10.7922 31.4491 11.8183 31.0241 12.5748 30.2676C13.3313 29.5111 13.7563 28.485 13.7563 27.4151C13.7563 26.3452 13.3313 25.3192 12.5748 24.5627C11.8183 23.8061 10.7922 23.3811 9.72231 23.3811C8.65243 23.3811 7.62637 23.8061 6.86984 24.5627C6.11332 25.3192 5.68831 26.3452 5.68831 27.4151C5.68831 28.485 6.11332 29.5111 6.86984 30.2676C7.62637 31.0241 8.65243 31.4491 9.72231 31.4491Z" stroke="#172554" stroke-width="1.5" stroke-linecap="round" stroke-linejoin="round"/>
</svg>
