<svg width="140" height="85" viewBox="0 0 140 85" fill="none" xmlns="http://www.w3.org/2000/svg">
<path d="M17.0953 35.611C17.8676 34.0214 20.1324 34.0214 20.9047 35.611L25.3156 44.689C25.999 46.0955 24.9746 47.7321 23.4109 47.7321H14.5891C13.0254 47.7321 12.001 46.0955 12.6844 44.689L17.0953 35.611Z" fill="white"/>
<path d="M49.0371 31.8479C50.2385 29.3752 53.7615 29.3752 54.9629 31.8479L61.8243 45.9692C62.8873 48.1571 61.2939 50.7029 58.8614 50.7029H45.1386C42.7061 50.7029 41.1127 48.1571 42.1757 45.9692L49.0371 31.8479Z" fill="white"/>
<path d="M97.2859 22.0629C99.6029 17.2942 106.397 17.2942 108.714 22.0629L121.947 49.2969C123.997 53.5164 120.924 58.4263 116.233 58.4263H89.7673C85.0761 58.4263 82.003 53.5164 84.0532 49.2969L97.2859 22.0629Z" fill="white"/>
</svg>
