<svg width="49" height="49" viewBox="0 0 49 49" fill="none" xmlns="http://www.w3.org/2000/svg">
<path d="M5.92969 16.5346C6.13769 12.3346 6.75969 9.71464 8.62369 7.85464C10.4837 5.99064 13.1037 5.36864 17.3037 5.16064M43.9297 16.5346C43.7217 12.3346 43.0997 9.71464 41.2357 7.85464C39.3757 5.99064 36.7557 5.36864 32.5557 5.16064M32.5557 43.1606C36.7557 42.9526 39.3757 42.3306 41.2357 40.4666C43.0997 38.6066 43.7217 35.9866 43.9297 31.7866M17.3037 43.1606C13.1037 42.9526 10.4837 42.3306 8.62369 40.4666C6.75969 38.6066 6.13769 35.9866 5.92969 31.7866M40.1997 22.7966C40.6857 23.4046 40.9297 23.7106 40.9297 24.1606C40.9297 24.6106 40.6857 24.9166 40.1997 25.5246C38.0137 28.2606 32.4317 34.1606 24.9297 34.1606C17.4277 34.1606 11.8457 28.2606 9.65969 25.5246C9.17369 24.9166 8.92969 24.6106 8.92969 24.1606C8.92969 23.7106 9.17369 23.4046 9.65969 22.7966C11.8457 20.0606 17.4277 14.1606 24.9297 14.1606C32.4317 14.1606 38.0137 20.0606 40.1997 22.7966Z" stroke="#172554" stroke-width="1.5" stroke-linecap="round" stroke-linejoin="round"/>
<path d="M28.9297 24.1606C28.9297 23.0998 28.5083 22.0824 27.7581 21.3322C27.008 20.5821 25.9906 20.1606 24.9297 20.1606C23.8688 20.1606 22.8514 20.5821 22.1013 21.3322C21.3511 22.0824 20.9297 23.0998 20.9297 24.1606C20.9297 25.2215 21.3511 26.2389 22.1013 26.9891C22.8514 27.7392 23.8688 28.1606 24.9297 28.1606C25.9906 28.1606 27.008 27.7392 27.7581 26.9891C28.5083 26.2389 28.9297 25.2215 28.9297 24.1606Z" stroke="#172554" stroke-width="1.5" stroke-linecap="round" stroke-linejoin="round"/>
</svg>
