<svg width="82" height="78" viewBox="0 0 82 78" fill="none" xmlns="http://www.w3.org/2000/svg">
<path d="M1.69807 77.2675C2.63589 77.2675 3.39614 76.5072 3.39614 75.5694C3.39614 74.6316 2.63589 73.8713 1.69807 73.8713C0.760252 73.8713 0 74.6316 0 75.5694C0 76.5072 0.760252 77.2675 1.69807 77.2675Z" fill="#1045E4"/>
<path d="M1.69807 62.5921C2.63589 62.5921 3.39614 61.8318 3.39614 60.894C3.39614 59.9562 2.63589 59.1959 1.69807 59.1959C0.760252 59.1959 0 59.9562 0 60.894C0 61.8318 0.760252 62.5921 1.69807 62.5921Z" fill="#1045E4"/>
<path d="M1.69807 47.9147C2.63589 47.9147 3.39614 47.1544 3.39614 46.2166C3.39614 45.2788 2.63589 44.5186 1.69807 44.5186C0.760252 44.5186 0 45.2788 0 46.2166C0 47.1544 0.760252 47.9147 1.69807 47.9147Z" fill="#1045E4"/>
<path d="M1.69807 33.3599C2.63589 33.3599 3.39614 32.5996 3.39614 31.6618C3.39614 30.724 2.63589 29.9637 1.69807 29.9637C0.760252 29.9637 0 30.724 0 31.6618C0 32.5996 0.760252 33.3599 1.69807 33.3599Z" fill="#1045E4"/>
<path d="M1.69807 18.6845C2.63589 18.6845 3.39614 17.9242 3.39614 16.9864C3.39614 16.0486 2.63589 15.2883 1.69807 15.2883C0.760252 15.2883 0 16.0486 0 16.9864C0 17.9242 0.760252 18.6845 1.69807 18.6845Z" fill="#1045E4"/>
<path d="M1.70002 4.12978C2.63784 4.12978 3.39809 3.36953 3.39809 2.43171C3.39809 1.49389 2.63784 0.733643 1.70002 0.733643C0.762205 0.733643 0.00195312 1.49389 0.00195312 2.43171C0.00195312 3.36953 0.762205 4.12978 1.70002 4.12978Z" fill="#1045E4"/>
<path d="M80.2977 77.2664C81.2355 77.2664 81.9957 76.5061 81.9957 75.5683C81.9957 74.6305 81.2355 73.8702 80.2977 73.8702C79.3599 73.8702 78.5996 74.6305 78.5996 75.5683C78.5996 76.5061 79.3599 77.2664 80.2977 77.2664Z" fill="#1045E4"/>
<path d="M80.2977 62.591C81.2355 62.591 81.9957 61.8307 81.9957 60.8929C81.9957 59.9551 81.2355 59.1948 80.2977 59.1948C79.3599 59.1948 78.5996 59.9551 78.5996 60.8929C78.5996 61.8307 79.3599 62.591 80.2977 62.591Z" fill="#1045E4"/>
<path d="M80.2977 47.9136C81.2355 47.9136 81.9957 47.1533 81.9957 46.2155C81.9957 45.2777 81.2355 44.5175 80.2977 44.5175C79.3599 44.5175 78.5996 45.2777 78.5996 46.2155C78.5996 47.1533 79.3599 47.9136 80.2977 47.9136Z" fill="#1045E4"/>
<path d="M80.2977 33.3588C81.2355 33.3588 81.9957 32.5985 81.9957 31.6607C81.9957 30.7229 81.2355 29.9626 80.2977 29.9626C79.3599 29.9626 78.5996 30.7229 78.5996 31.6607C78.5996 32.5985 79.3599 33.3588 80.2977 33.3588Z" fill="#1045E4"/>
<path d="M80.2977 18.6834C81.2355 18.6834 81.9957 17.9231 81.9957 16.9853C81.9957 16.0475 81.2355 15.2872 80.2977 15.2872C79.3599 15.2872 78.5996 16.0475 78.5996 16.9853C78.5996 17.9231 79.3599 18.6834 80.2977 18.6834Z" fill="#1045E4"/>
<path d="M80.2977 4.12868C81.2355 4.12868 81.9957 3.36843 81.9957 2.43061C81.9957 1.4928 81.2355 0.732544 80.2977 0.732544C79.3599 0.732544 78.5996 1.4928 78.5996 2.43061C78.5996 3.36843 79.3599 4.12868 80.2977 4.12868Z" fill="#1045E4"/>
<path d="M64.6492 77.2664C65.5871 77.2664 66.3473 76.5061 66.3473 75.5683C66.3473 74.6305 65.5871 73.8702 64.6492 73.8702C63.7114 73.8702 62.9512 74.6305 62.9512 75.5683C62.9512 76.5061 63.7114 77.2664 64.6492 77.2664Z" fill="#1045E4"/>
<path d="M64.6492 62.591C65.5871 62.591 66.3473 61.8307 66.3473 60.8929C66.3473 59.9551 65.5871 59.1948 64.6492 59.1948C63.7114 59.1948 62.9512 59.9551 62.9512 60.8929C62.9512 61.8307 63.7114 62.591 64.6492 62.591Z" fill="#1045E4"/>
<path d="M64.6492 47.9136C65.5871 47.9136 66.3473 47.1533 66.3473 46.2155C66.3473 45.2777 65.5871 44.5175 64.6492 44.5175C63.7114 44.5175 62.9512 45.2777 62.9512 46.2155C62.9512 47.1533 63.7114 47.9136 64.6492 47.9136Z" fill="#1045E4"/>
<path d="M64.6492 33.3588C65.5871 33.3588 66.3473 32.5985 66.3473 31.6607C66.3473 30.7229 65.5871 29.9626 64.6492 29.9626C63.7114 29.9626 62.9512 30.7229 62.9512 31.6607C62.9512 32.5985 63.7114 33.3588 64.6492 33.3588Z" fill="#1045E4"/>
<path d="M64.6492 18.6834C65.5871 18.6834 66.3473 17.9231 66.3473 16.9853C66.3473 16.0475 65.5871 15.2872 64.6492 15.2872C63.7114 15.2872 62.9512 16.0475 62.9512 16.9853C62.9512 17.9231 63.7114 18.6834 64.6492 18.6834Z" fill="#1045E4"/>
<path d="M64.6492 4.12868C65.5871 4.12868 66.3473 3.36843 66.3473 2.43061C66.3473 1.4928 65.5871 0.732544 64.6492 0.732544C63.7114 0.732544 62.9512 1.4928 62.9512 2.43061C62.9512 3.36843 63.7114 4.12868 64.6492 4.12868Z" fill="#1045E4"/>
<path d="M48.8797 77.2664C49.8175 77.2664 50.5778 76.5061 50.5778 75.5683C50.5778 74.6305 49.8175 73.8702 48.8797 73.8702C47.9419 73.8702 47.1816 74.6305 47.1816 75.5683C47.1816 76.5061 47.9419 77.2664 48.8797 77.2664Z" fill="#1045E4"/>
<path d="M48.8797 62.591C49.8175 62.591 50.5778 61.8307 50.5778 60.8929C50.5778 59.9551 49.8175 59.1948 48.8797 59.1948C47.9419 59.1948 47.1816 59.9551 47.1816 60.8929C47.1816 61.8307 47.9419 62.591 48.8797 62.591Z" fill="#1045E4"/>
<path d="M48.8797 47.9136C49.8175 47.9136 50.5778 47.1533 50.5778 46.2155C50.5778 45.2777 49.8175 44.5175 48.8797 44.5175C47.9419 44.5175 47.1816 45.2777 47.1816 46.2155C47.1816 47.1533 47.9419 47.9136 48.8797 47.9136Z" fill="#1045E4"/>
<path d="M48.8797 33.3588C49.8175 33.3588 50.5778 32.5985 50.5778 31.6607C50.5778 30.7229 49.8175 29.9626 48.8797 29.9626C47.9419 29.9626 47.1816 30.7229 47.1816 31.6607C47.1816 32.5985 47.9419 33.3588 48.8797 33.3588Z" fill="#1045E4"/>
<path d="M48.8797 18.6834C49.8175 18.6834 50.5778 17.9231 50.5778 16.9853C50.5778 16.0475 49.8175 15.2872 48.8797 15.2872C47.9419 15.2872 47.1816 16.0475 47.1816 16.9853C47.1816 17.9231 47.9419 18.6834 48.8797 18.6834Z" fill="#1045E4"/>
<path d="M48.8797 4.12868C49.8175 4.12868 50.5778 3.36843 50.5778 2.43061C50.5778 1.4928 49.8175 0.732544 48.8797 0.732544C47.9419 0.732544 47.1816 1.4928 47.1816 2.43061C47.1816 3.36843 47.9419 4.12868 48.8797 4.12868Z" fill="#1045E4"/>
<path d="M33.1121 77.2664C34.05 77.2664 34.8102 76.5061 34.8102 75.5683C34.8102 74.6305 34.05 73.8702 33.1121 73.8702C32.1743 73.8702 31.4141 74.6305 31.4141 75.5683C31.4141 76.5061 32.1743 77.2664 33.1121 77.2664Z" fill="#1045E4"/>
<path d="M33.1121 62.591C34.05 62.591 34.8102 61.8307 34.8102 60.8929C34.8102 59.9551 34.05 59.1948 33.1121 59.1948C32.1743 59.1948 31.4141 59.9551 31.4141 60.8929C31.4141 61.8307 32.1743 62.591 33.1121 62.591Z" fill="#1045E4"/>
<path d="M33.1121 47.9136C34.05 47.9136 34.8102 47.1533 34.8102 46.2155C34.8102 45.2777 34.05 44.5175 33.1121 44.5175C32.1743 44.5175 31.4141 45.2777 31.4141 46.2155C31.4141 47.1533 32.1743 47.9136 33.1121 47.9136Z" fill="#1045E4"/>
<path d="M33.1121 33.3588C34.05 33.3588 34.8102 32.5985 34.8102 31.6607C34.8102 30.7229 34.05 29.9626 33.1121 29.9626C32.1743 29.9626 31.4141 30.7229 31.4141 31.6607C31.4141 32.5985 32.1743 33.3588 33.1121 33.3588Z" fill="#1045E4"/>
<path d="M33.1121 18.6834C34.05 18.6834 34.8102 17.9231 34.8102 16.9853C34.8102 16.0475 34.05 15.2872 33.1121 15.2872C32.1743 15.2872 31.4141 16.0475 31.4141 16.9853C31.4141 17.9231 32.1743 18.6834 33.1121 18.6834Z" fill="#1045E4"/>
<path d="M33.1121 4.12868C34.05 4.12868 34.8102 3.36843 34.8102 2.43061C34.8102 1.4928 34.05 0.732544 33.1121 0.732544C32.1743 0.732544 31.4141 1.4928 31.4141 2.43061C31.4141 3.36843 32.1743 4.12868 33.1121 4.12868Z" fill="#1045E4"/>
<path d="M17.3446 77.2664C18.2824 77.2664 19.0426 76.5061 19.0426 75.5683C19.0426 74.6305 18.2824 73.8702 17.3446 73.8702C16.4067 73.8702 15.6465 74.6305 15.6465 75.5683C15.6465 76.5061 16.4067 77.2664 17.3446 77.2664Z" fill="#1045E4"/>
<path d="M17.3446 62.591C18.2824 62.591 19.0426 61.8307 19.0426 60.8929C19.0426 59.9551 18.2824 59.1948 17.3446 59.1948C16.4067 59.1948 15.6465 59.9551 15.6465 60.8929C15.6465 61.8307 16.4067 62.591 17.3446 62.591Z" fill="#1045E4"/>
<path d="M17.3446 47.9136C18.2824 47.9136 19.0426 47.1533 19.0426 46.2155C19.0426 45.2777 18.2824 44.5175 17.3446 44.5175C16.4067 44.5175 15.6465 45.2777 15.6465 46.2155C15.6465 47.1533 16.4067 47.9136 17.3446 47.9136Z" fill="#1045E4"/>
<path d="M17.3446 33.3588C18.2824 33.3588 19.0426 32.5985 19.0426 31.6607C19.0426 30.7229 18.2824 29.9626 17.3446 29.9626C16.4067 29.9626 15.6465 30.7229 15.6465 31.6607C15.6465 32.5985 16.4067 33.3588 17.3446 33.3588Z" fill="#1045E4"/>
<path d="M17.3446 18.6834C18.2824 18.6834 19.0426 17.9231 19.0426 16.9853C19.0426 16.0475 18.2824 15.2872 17.3446 15.2872C16.4067 15.2872 15.6465 16.0475 15.6465 16.9853C15.6465 17.9231 16.4067 18.6834 17.3446 18.6834Z" fill="#1045E4"/>
<path d="M17.3446 4.12868C18.2824 4.12868 19.0426 3.36843 19.0426 2.43061C19.0426 1.4928 18.2824 0.732544 17.3446 0.732544C16.4067 0.732544 15.6465 1.4928 15.6465 2.43061C15.6465 3.36843 16.4067 4.12868 17.3446 4.12868Z" fill="#1045E4"/>
</svg>
