<svg width="14" height="14" viewBox="0 0 14 14" fill="none" xmlns="http://www.w3.org/2000/svg">
<path d="M8.75 4.66699C8.75 5.63349 7.96652 6.41699 7 6.41699C6.03347 6.41699 5.25 5.63349 5.25 4.66699C5.25 3.7005 6.03347 2.91699 7 2.91699C7.96652 2.91699 8.75 3.7005 8.75 4.66699Z" stroke="white" stroke-linecap="round" stroke-linejoin="round"/>
<path d="M9.3335 2.33301C10.3 2.33301 11.0835 3.11651 11.0835 4.08301C11.0835 4.79648 10.6565 5.41023 10.0442 5.68268" stroke="white" stroke-linecap="round" stroke-linejoin="round"/>
<path d="M8.00002 8.16699H6C4.61929 8.16699 3.5 9.28629 3.5 10.667C3.5 11.2193 3.94771 11.667 4.5 11.667H9.5C10.0523 11.667 10.5 11.2193 10.5 10.667C10.5 9.28629 9.38071 8.16699 8.00002 8.16699Z" stroke="white" stroke-linecap="round" stroke-linejoin="round"/>
<path d="M10.3335 7.58301C11.7142 7.58301 12.8335 8.70231 12.8335 10.083C12.8335 10.6353 12.3858 11.083 11.8335 11.083" stroke="white" stroke-linecap="round" stroke-linejoin="round"/>
<path d="M4.6665 2.33301C3.70001 2.33301 2.9165 3.11651 2.9165 4.08301C2.9165 4.79648 3.34346 5.41023 3.95582 5.68268" stroke="white" stroke-linecap="round" stroke-linejoin="round"/>
<path d="M2.16651 11.083C1.61422 11.083 1.1665 10.6353 1.1665 10.083C1.1665 8.70231 2.28579 7.58301 3.6665 7.58301" stroke="white" stroke-linecap="round" stroke-linejoin="round"/>
</svg>
