<svg width="25" height="24" viewBox="0 0 25 24" fill="none" xmlns="http://www.w3.org/2000/svg">
<g clip-path="url(#clip0_941_77)">
<path d="M24.0163 12.2764C24.0163 11.4607 23.9501 10.6406 23.809 9.83807H12.4902V14.4591H18.972C18.703 15.9494 17.8388 17.2678 16.5733 18.1056V21.1039H20.4403C22.7111 19.0139 24.0163 15.9274 24.0163 12.2764Z" fill="#4285F4"/>
<path d="M12.4891 24.0008C15.7256 24.0008 18.455 22.9382 20.4436 21.1039L16.5766 18.1055C15.5007 18.8375 14.1118 19.252 12.4935 19.252C9.36291 19.252 6.70849 17.1399 5.75607 14.3003H1.76562V17.3912C3.80274 21.4434 7.95192 24.0008 12.4891 24.0008Z" fill="#34A853"/>
<path d="M5.75277 14.3003C5.25011 12.8099 5.25011 11.1961 5.75277 9.70575V6.61481H1.76674C0.0647337 10.0056 0.0647337 14.0004 1.76674 17.3912L5.75277 14.3003Z" fill="#FBBC04"/>
<path d="M12.4891 4.74966C14.1999 4.7232 15.8534 5.36697 17.0925 6.54867L20.5185 3.12262C18.3491 1.0855 15.4698 -0.034466 12.4891 0.000808666C7.95192 0.000808666 3.80274 2.55822 1.76562 6.61481L5.75166 9.70575C6.69967 6.86173 9.3585 4.74966 12.4891 4.74966Z" fill="#EA4335"/>
</g>
<defs>
<clipPath id="clip0_941_77">
<rect width="24" height="24" fill="white" transform="translate(0.25)"/>
</clipPath>
</defs>
</svg>
